<svg version="1.0" viewBox="0 0 256 256" xmlns="http://www.w3.org/2000/svg"><path d="M162.6 9.1c-11.4 2.8-21.7 11.6-27.4 23.3-4.6 9.5-6.2 16.6-7.3 34.1-1.4 21-2.2 24.7-7.3 35.2-7.2 14.8-13.2 22.4-43.1 55.3-35.8 39.3-68.3 77.3-69.2 80.9-1.2 5 4.8 11 9.8 9.8 3.8-1 42.9-34.6 85.3-73.2 24.9-22.7 35.5-31.3 47.2-38.3 13.7-8.1 20.7-9.9 43.1-11.1 21.6-1.1 28.7-2.8 37.3-8.8 14.5-10.2 20.7-29.1 14.2-43.4-2.3-5.1-15.4-18.9-20.2-21.4-8.9-4.6-16.1-.9-37.1 19.2-8.1 7.9-15.3 14.3-15.8 14.3-2.3 0 1-4.2 13.2-16.9 19.8-20.7 23.5-27.2 19.8-35.5-2.4-5.6-16.1-19.1-22-21.8-5.1-2.4-14.8-3.2-20.5-1.7zm15.8 15.7c8.3 4.8 11.6 14.3 7.6 22.1-2.6 5.2-16.3 19.6-24.2 25.6-7.7 5.8-11.2 6.5-14.7 3.1-2.6-2.6-2.6-2.8-2.6-16.9.1-15.2.7-18 6.1-25.9 6.5-9.4 19.1-13 27.8-8zm44.5 45.6c4.3 2.3 9.7 8.9 10.5 12.9.8 4.3-.8 11.1-3.6 15-4.1 5.8-15.7 9.2-35.3 10.4-12.8.7-15-.1-14.2-5.8.7-5.3 6.7-12.9 17.3-22.1 13.2-11.4 18.8-13.7 25.3-10.4z" fill="#0041ff" class="fill-000000"></path></svg>